/* XPM */
static const char * document_xpm[] = {
"26 26 2 1",
" 	c None",
".	c #000000",
"..........................",
"..........................",
"..........................",
"...                    ...",
"...                    ...",
"...                    ...",
"...                    ...",
"...                    ...",
"...                    ...",
"...                    ...",
"...                    ...",
"...                    ...",
"...                    ...",
"...                    ...",
"...           ....     ...",
"...         ........   ...",
"....       ...............",
".....     ................",
"..............    ........",
"  ...........         ....",
"   .........              ",
"      ...                 ",
"                          ",
"                          ",
"                          ",
"                          "};
